STARTFONT 2.1
FONT -FontForge-Fontdiner Swanky-Book-R-Normal--12-120-72-72-P-75-ISO10646-1
SIZE 12 72 72
FONTBOUNDINGBOX 17 18 -3 -6
COMMENT "Generated by fontforge, http://fontforge.sourceforge.net"
COMMENT "Copyright (c) 2010 by Font Diner, Inc. All rights reserved."
STARTPROPERTIES 39
FOUNDRY "FontForge"
FAMILY_NAME "Fontdiner Swanky"
WEIGHT_NAME "Book"
SLANT "R"
SETWIDTH_NAME "Normal"
ADD_STYLE_NAME ""
PIXEL_SIZE 12
POINT_SIZE 120
RESOLUTION_X 72
RESOLUTION_Y 72
SPACING "P"
AVERAGE_WIDTH 75
CHARSET_REGISTRY "ISO10646"
CHARSET_ENCODING "1"
FONTNAME_REGISTRY ""
CHARSET_COLLECTIONS "ISO10646-1"
FONT_NAME "FontdinerSwanky-Regular"
FACE_NAME "Fontdiner Swanky Regular"
COPYRIGHT "Copyright (c) 2010 by Font Diner, Inc. All rights reserved."
FONT_VERSION "1.001"
FONT_ASCENT 10
FONT_DESCENT 2
UNDERLINE_POSITION -1
UNDERLINE_THICKNESS 1
X_HEIGHT 6
CAP_HEIGHT 6
RAW_ASCENT 799
RAW_DESCENT 200
NORM_SPACE 4
RELATIVE_WEIGHT 40
RELATIVE_SETWIDTH 50
SUPERSCRIPT_X 0
SUPERSCRIPT_Y 5
SUPERSCRIPT_SIZE 7
SUBSCRIPT_X 0
SUBSCRIPT_Y 1
SUBSCRIPT_SIZE 7
AVG_LOWERCASE_WIDTH 75
AVG_UPPERCASE_WIDTH 91
ENDPROPERTIES
CHARS 231
STARTCHAR space
ENCODING 32
SWIDTH 320 0
DWIDTH 4 0
BBX 1 1 0 0
BITMAP
00
ENDCHAR
STARTCHAR exclam
ENCODING 33
SWIDTH 305 0
DWIDTH 4 0
BBX 4 10 0 0
BITMAP
70
60
60
60
60
60
40
40
40
C0
ENDCHAR
STARTCHAR quotedbl
ENCODING 34
SWIDTH 369 0
DWIDTH 4 0
BBX 4 3 0 5
BITMAP
F0
D0
D0
ENDCHAR
STARTCHAR numbersign
ENCODING 35
SWIDTH 702 0
DWIDTH 8 0
BBX 8 8 0 0
BITMAP
36
FE
FF
24
24
FF
24
24
ENDCHAR
STARTCHAR dollar
ENCODING 36
SWIDTH 545 0
DWIDTH 7 0
BBX 6 10 0 -1
BITMAP
30
34
7C
C4
E4
7C
9C
C4
FC
30
ENDCHAR
STARTCHAR percent
ENCODING 37
SWIDTH 657 0
DWIDTH 8 0
BBX 8 10 0 -1
BITMAP
66
B4
FC
08
18
18
17
35
27
20
ENDCHAR
STARTCHAR ampersand
ENCODING 38
SWIDTH 668 0
DWIDTH 8 0
BBX 10 11 0 -2
BITMAP
3800
4C00
6C00
3800
3200
5A00
CF00
E7C0
7E00
0400
0800
ENDCHAR
STARTCHAR quotesingle
ENCODING 39
SWIDTH 177 0
DWIDTH 2 0
BBX 2 3 0 5
BITMAP
C0
C0
C0
ENDCHAR
STARTCHAR parenleft
ENCODING 40
SWIDTH 384 0
DWIDTH 5 0
BBX 4 12 1 -2
BITMAP
30
40
C0
C0
80
80
80
C0
C0
40
60
10
ENDCHAR
STARTCHAR parenright
ENCODING 41
SWIDTH 375 0
DWIDTH 5 0
BBX 4 12 0 -2
BITMAP
80
60
20
30
30
30
30
30
30
60
40
80
ENDCHAR
STARTCHAR asterisk
ENCODING 42
SWIDTH 640 0
DWIDTH 8 0
BBX 8 8 0 0
BITMAP
28
6E
3C
FF
FF
3C
6E
28
ENDCHAR
STARTCHAR plus
ENCODING 43
SWIDTH 607 0
DWIDTH 7 0
BBX 7 7 0 0
BITMAP
18
18
FE
FE
10
10
10
ENDCHAR
STARTCHAR comma
ENCODING 44
SWIDTH 226 0
DWIDTH 3 0
BBX 3 4 0 -3
BITMAP
C0
E0
40
80
ENDCHAR
STARTCHAR hyphen
ENCODING 45
SWIDTH 549 0
DWIDTH 7 0
BBX 5 2 1 3
BITMAP
F8
F8
ENDCHAR
STARTCHAR period
ENCODING 46
SWIDTH 226 0
DWIDTH 3 0
BBX 3 2 0 -1
BITMAP
C0
E0
ENDCHAR
STARTCHAR slash
ENCODING 47
SWIDTH 600 0
DWIDTH 7 0
BBX 8 12 0 -1
BITMAP
04
07
06
0C
1C
18
38
30
60
60
C0
80
ENDCHAR
STARTCHAR zero
ENCODING 48
SWIDTH 740 0
DWIDTH 9 0
BBX 9 8 0 0
BITMAP
0800
7F00
6300
C180
C180
C300
6300
3C00
ENDCHAR
STARTCHAR one
ENCODING 49
SWIDTH 503 0
DWIDTH 6 0
BBX 8 9 -1 0
BITMAP
08
F8
18
18
18
18
18
18
7F
ENDCHAR
STARTCHAR two
ENCODING 50
SWIDTH 638 0
DWIDTH 8 0
BBX 7 9 0 0
BITMAP
98
7E
46
46
46
1E
72
E2
FE
ENDCHAR
STARTCHAR three
ENCODING 51
SWIDTH 620 0
DWIDTH 7 0
BBX 7 10 0 -1
BITMAP
80
FC
46
46
2E
3E
86
C6
FC
90
ENDCHAR
STARTCHAR four
ENCODING 52
SWIDTH 606 0
DWIDTH 7 0
BBX 8 10 -1 -1
BITMAP
02
06
0E
1C
15
25
FF
05
05
3F
ENDCHAR
STARTCHAR five
ENCODING 53
SWIDTH 610 0
DWIDTH 7 0
BBX 7 10 0 -1
BITMAP
0E
FE
C2
FA
7C
86
86
CE
FC
80
ENDCHAR
STARTCHAR six
ENCODING 54
SWIDTH 619 0
DWIDTH 7 0
BBX 7 11 0 -1
BITMAP
02
02
3E
66
E2
FE
C6
C2
C6
66
3C
ENDCHAR
STARTCHAR seven
ENCODING 55
SWIDTH 598 0
DWIDTH 7 0
BBX 8 10 0 -1
BITMAP
C0
FF
46
4E
4C
0C
0C
18
18
7E
ENDCHAR
STARTCHAR eight
ENCODING 56
SWIDTH 642 0
DWIDTH 8 0
BBX 8 10 0 -1
BITMAP
10
7E
66
66
66
7E
E7
C3
E6
7C
ENDCHAR
STARTCHAR nine
ENCODING 57
SWIDTH 610 0
DWIDTH 7 0
BBX 7 11 0 -2
BITMAP
18
6C
C6
C6
C6
7E
BE
46
7C
50
40
ENDCHAR
STARTCHAR colon
ENCODING 58
SWIDTH 223 0
DWIDTH 3 0
BBX 2 5 0 -1
BITMAP
C0
C0
00
C0
C0
ENDCHAR
STARTCHAR semicolon
ENCODING 59
SWIDTH 228 0
DWIDTH 3 0
BBX 3 7 0 -3
BITMAP
E0
C0
00
C0
C0
40
80
ENDCHAR
STARTCHAR less
ENCODING 60
SWIDTH 563 0
DWIDTH 7 0
BBX 7 8 0 0
BITMAP
02
0E
3E
F8
60
38
0C
02
ENDCHAR
STARTCHAR equal
ENCODING 61
SWIDTH 531 0
DWIDTH 6 0
BBX 6 5 0 1
BITMAP
C0
FC
00
FC
FC
ENDCHAR
STARTCHAR greater
ENCODING 62
SWIDTH 576 0
DWIDTH 7 0
BBX 7 8 0 0
BITMAP
80
E0
78
1E
0C
18
60
40
ENDCHAR
STARTCHAR question
ENCODING 63
SWIDTH 592 0
DWIDTH 7 0
BBX 7 11 0 0
BITMAP
80
60
DC
86
06
06
3C
60
60
40
E0
ENDCHAR
STARTCHAR at
ENCODING 64
SWIDTH 792 0
DWIDTH 10 0
BBX 10 8 0 0
BITMAP
3F00
6180
DE80
D2C0
DEC0
D2C0
5E80
7F00
ENDCHAR
STARTCHAR A
ENCODING 65
SWIDTH 788 0
DWIDTH 9 0
BBX 14 11 -2 -3
BITMAP
1E00
0300
0700
0580
0D80
0FC0
10C0
3060
FC70
007C
0080
ENDCHAR
STARTCHAR B
ENCODING 66
SWIDTH 774 0
DWIDTH 9 0
BBX 10 9 -1 -1
BITMAP
FF00
31C0
30C0
31C0
3F80
1980
18C0
19C0
FF00
ENDCHAR
STARTCHAR C
ENCODING 67
SWIDTH 766 0
DWIDTH 9 0
BBX 9 10 0 -1
BITMAP
0080
3E80
7180
6080
E080
C000
E080
6080
3F80
0C80
ENDCHAR
STARTCHAR D
ENCODING 68
SWIDTH 833 0
DWIDTH 10 0
BBX 11 8 -1 0
BITMAP
FF80
18C0
1860
1860
1860
1860
18C0
7F80
ENDCHAR
STARTCHAR E
ENCODING 69
SWIDTH 781 0
DWIDTH 9 0
BBX 10 9 -1 0
BITMAP
01C0
FFC0
1940
1A40
1A40
1E40
1A40
1940
FFC0
ENDCHAR
STARTCHAR F
ENCODING 70
SWIDTH 731 0
DWIDTH 9 0
BBX 9 10 -1 -1
BITMAP
0080
FF80
1880
1A80
1A80
1E00
1A00
1A00
1800
FE00
ENDCHAR
STARTCHAR G
ENCODING 71
SWIDTH 828 0
DWIDTH 10 0
BBX 11 9 0 0
BITMAP
0080
3F80
7180
E080
E080
EFE0
E180
6180
3F80
ENDCHAR
STARTCHAR H
ENCODING 72
SWIDTH 797 0
DWIDTH 10 0
BBX 12 9 -1 -1
BITMAP
C7E0
3980
3180
3180
3F80
3180
3180
33F0
FE00
ENDCHAR
STARTCHAR I
ENCODING 73
SWIDTH 445 0
DWIDTH 5 0
BBX 7 9 -1 -1
BITMAP
FE
18
18
18
18
18
18
18
FE
ENDCHAR
STARTCHAR J
ENCODING 74
SWIDTH 718 0
DWIDTH 9 0
BBX 11 11 -1 -2
BITMAP
00E0
3F00
0300
0300
0180
0180
0980
F180
2300
3F00
0800
ENDCHAR
STARTCHAR K
ENCODING 75
SWIDTH 934 0
DWIDTH 11 0
BBX 15 10 -1 -1
BITMAP
FF04
19F8
18C0
1B00
1F00
1980
19C0
18C0
7E60
01FE
ENDCHAR
STARTCHAR L
ENCODING 76
SWIDTH 712 0
DWIDTH 9 0
BBX 9 9 -1 0
BITMAP
FF00
1800
1800
1800
1880
1880
1880
1880
FF80
ENDCHAR
STARTCHAR M
ENCODING 77
SWIDTH 1033 0
DWIDTH 12 0
BBX 14 9 -1 0
BITMAP
C03C
3C70
1C70
1EB0
16B0
1730
1330
1230
FFFC
ENDCHAR
STARTCHAR N
ENCODING 78
SWIDTH 840 0
DWIDTH 10 0
BBX 12 10 -1 -1
BITMAP
C7F0
3CC0
1C40
1E40
1740
13C0
11C0
10C0
FF40
0040
ENDCHAR
STARTCHAR O
ENCODING 79
SWIDTH 808 0
DWIDTH 10 0
BBX 9 7 0 0
BITMAP
3F00
6180
E180
C180
E180
6380
3E00
ENDCHAR
STARTCHAR P
ENCODING 80
SWIDTH 746 0
DWIDTH 9 0
BBX 10 8 -1 0
BITMAP
FC00
1FC0
18C0
19C0
1E00
1800
1800
FF00
ENDCHAR
STARTCHAR Q
ENCODING 81
SWIDTH 789 0
DWIDTH 9 0
BBX 11 12 0 -4
BITMAP
1E00
7300
6180
C180
E180
6180
7700
1E00
0600
07E0
0E00
1000
ENDCHAR
STARTCHAR R
ENCODING 82
SWIDTH 826 0
DWIDTH 10 0
BBX 14 11 -1 -3
BITMAP
FE00
1BC0
1840
1980
1F00
1980
19C0
3EC0
C17C
00E0
0100
ENDCHAR
STARTCHAR S
ENCODING 83
SWIDTH 661 0
DWIDTH 8 0
BBX 8 9 0 -1
BITMAP
3D
C6
C2
F8
3E
87
43
7E
80
ENDCHAR
STARTCHAR T
ENCODING 84
SWIDTH 754 0
DWIDTH 9 0
BBX 9 8 0 0
BITMAP
FF80
5D00
5900
9880
1800
1800
0800
7F00
ENDCHAR
STARTCHAR U
ENCODING 85
SWIDTH 725 0
DWIDTH 9 0
BBX 11 8 -1 0
BITMAP
EFE0
3080
3080
3080
3080
3080
3980
1F00
ENDCHAR
STARTCHAR V
ENCODING 86
SWIDTH 786 0
DWIDTH 9 0
BBX 13 10 -2 -1
BITMAP
0200
FDF8
1860
0C40
0CC0
0680
0700
0700
0200
0200
ENDCHAR
STARTCHAR W
ENCODING 87
SWIDTH 1026 0
DWIDTH 12 0
BBX 16 9 -2 -1
BITMAP
FF30
188F
1888
0DC8
0DF0
0770
0670
0620
0220
ENDCHAR
STARTCHAR X
ENCODING 88
SWIDTH 860 0
DWIDTH 10 0
BBX 12 8 -1 -1
BITMAP
FFF0
1D80
0F00
0700
0F00
1180
F9C0
0330
ENDCHAR
STARTCHAR Y
ENCODING 89
SWIDTH 848 0
DWIDTH 10 0
BBX 13 9 -2 -1
BITMAP
FE00
1CF8
0E40
0680
0300
0300
0300
0300
0FE0
ENDCHAR
STARTCHAR Z
ENCODING 90
SWIDTH 685 0
DWIDTH 8 0
BBX 9 7 0 0
BITMAP
FF80
4600
4C00
5D00
3900
7100
FF00
ENDCHAR
STARTCHAR bracketleft
ENCODING 91
SWIDTH 380 0
DWIDTH 5 0
BBX 4 11 1 -1
BITMAP
F0
C0
C0
C0
C0
C0
C0
C0
C0
C0
F0
ENDCHAR
STARTCHAR backslash
ENCODING 92
SWIDTH 680 0
DWIDTH 8 0
BBX 8 12 0 -1
BITMAP
40
E0
60
70
30
18
18
0C
0E
06
03
02
ENDCHAR
STARTCHAR bracketright
ENCODING 93
SWIDTH 371 0
DWIDTH 4 0
BBX 5 11 -1 -1
BITMAP
F8
18
18
18
18
18
18
18
18
18
78
ENDCHAR
STARTCHAR asciicircum
ENCODING 94
SWIDTH 671 0
DWIDTH 8 0
BBX 8 8 0 3
BITMAP
10
18
18
3C
76
62
E1
40
ENDCHAR
STARTCHAR underscore
ENCODING 95
SWIDTH 840 0
DWIDTH 10 0
BBX 10 2 0 -1
BITMAP
FFC0
FFC0
ENDCHAR
STARTCHAR grave
ENCODING 96
SWIDTH 707 0
DWIDTH 8 0
BBX 3 3 3 7
BITMAP
C0
60
60
ENDCHAR
STARTCHAR a
ENCODING 97
SWIDTH 572 0
DWIDTH 7 0
BBX 8 7 0 0
BITMAP
38
4C
44
34
CC
CC
7F
ENDCHAR
STARTCHAR b
ENCODING 98
SWIDTH 723 0
DWIDTH 9 0
BBX 11 11 -2 -2
BITMAP
FC00
1800
1800
1800
1800
1B80
1DC0
08E0
08C0
1B80
3C00
ENDCHAR
STARTCHAR c
ENCODING 99
SWIDTH 589 0
DWIDTH 7 0
BBX 7 7 0 -1
BITMAP
3C
66
C6
C0
62
7C
38
ENDCHAR
STARTCHAR d
ENCODING 100
SWIDTH 713 0
DWIDTH 9 0
BBX 10 11 0 -2
BITMAP
0F80
0300
0300
0300
1B00
7700
6300
C300
6200
3E00
03C0
ENDCHAR
STARTCHAR e
ENCODING 101
SWIDTH 593 0
DWIDTH 7 0
BBX 7 7 0 -1
BITMAP
10
7C
46
FE
C0
66
38
ENDCHAR
STARTCHAR f
ENCODING 102
SWIDTH 507 0
DWIDTH 6 0
BBX 8 17 -1 -5
BITMAP
04
1A
1B
12
10
18
7E
18
18
18
18
18
08
08
C8
58
30
ENDCHAR
STARTCHAR g
ENCODING 103
SWIDTH 606 0
DWIDTH 7 0
BBX 8 14 0 -6
BITMAP
02
07
3F
46
C6
C6
64
78
78
7E
C3
C3
C6
3C
ENDCHAR
STARTCHAR h
ENCODING 104
SWIDTH 678 0
DWIDTH 8 0
BBX 11 11 -2 -1
BITMAP
F800
1800
1800
1800
1800
1F00
18C0
18C0
18C0
3C80
03E0
ENDCHAR
STARTCHAR i
ENCODING 105
SWIDTH 393 0
DWIDTH 5 0
BBX 5 10 0 0
BITMAP
20
70
30
80
70
30
30
30
30
F8
ENDCHAR
STARTCHAR j
ENCODING 106
SWIDTH 385 0
DWIDTH 5 0
BBX 5 13 -1 -4
BITMAP
30
30
30
78
18
18
18
18
18
18
D8
D8
70
ENDCHAR
STARTCHAR k
ENCODING 107
SWIDTH 749 0
DWIDTH 9 0
BBX 12 11 -2 -1
BITMAP
FC00
1800
1BF0
18C0
1900
1F00
0F00
0980
0880
3EE0
41D0
ENDCHAR
STARTCHAR l
ENCODING 108
SWIDTH 369 0
DWIDTH 4 0
BBX 6 11 -1 -1
BITMAP
F8
30
30
30
30
10
10
10
10
10
7C
ENDCHAR
STARTCHAR m
ENCODING 109
SWIDTH 990 0
DWIDTH 12 0
BBX 14 6 -1 1
BITMAP
0800
FFF0
3190
1110
1110
7FFC
ENDCHAR
STARTCHAR n
ENCODING 110
SWIDTH 643 0
DWIDTH 8 0
BBX 10 6 -1 1
BITMAP
0800
FF00
3100
1100
1100
7FC0
ENDCHAR
STARTCHAR o
ENCODING 111
SWIDTH 705 0
DWIDTH 8 0
BBX 8 6 0 0
BITMAP
3C
67
C3
C3
E3
3E
ENDCHAR
STARTCHAR p
ENCODING 112
SWIDTH 723 0
DWIDTH 9 0
BBX 10 10 -1 -3
BITMAP
9000
7F00
3180
30C0
10C0
1980
1700
1000
1000
FE00
ENDCHAR
STARTCHAR q
ENCODING 113
SWIDTH 682 0
DWIDTH 8 0
BBX 10 10 0 -3
BITMAP
07C0
7E00
C600
C600
C600
7E00
0600
0600
0600
1FC0
ENDCHAR
STARTCHAR r
ENCODING 114
SWIDTH 595 0
DWIDTH 7 0
BBX 9 7 -1 0
BITMAP
FF00
1F80
1800
1800
1800
1800
7F00
ENDCHAR
STARTCHAR s
ENCODING 115
SWIDTH 533 0
DWIDTH 6 0
BBX 6 7 0 0
BITMAP
7C
CC
E4
78
9C
C4
FC
ENDCHAR
STARTCHAR t
ENCODING 116
SWIDTH 422 0
DWIDTH 5 0
BBX 5 11 0 0
BITMAP
20
20
20
F8
68
60
60
60
68
68
78
ENDCHAR
STARTCHAR u
ENCODING 117
SWIDTH 614 0
DWIDTH 7 0
BBX 9 7 -1 -1
BITMAP
FF00
3300
2300
2300
3300
3F80
0200
ENDCHAR
STARTCHAR v
ENCODING 118
SWIDTH 639 0
DWIDTH 8 0
BBX 11 8 -2 -1
BITMAP
0400
FB20
18C0
0900
0D00
0600
0600
0200
ENDCHAR
STARTCHAR w
ENCODING 119
SWIDTH 805 0
DWIDTH 10 0
BBX 13 7 -2 0
BITMAP
DEC8
3930
1B20
0FC0
0FC0
0480
0480
ENDCHAR
STARTCHAR x
ENCODING 120
SWIDTH 717 0
DWIDTH 9 0
BBX 11 8 -1 -1
BITMAP
0E00
F3E0
1B00
0C00
0E00
1300
FFE0
0400
ENDCHAR
STARTCHAR y
ENCODING 121
SWIDTH 655 0
DWIDTH 8 0
BBX 9 12 -1 -5
BITMAP
8000
6F80
3300
3300
7300
3300
1F00
0300
0300
2300
6300
3E00
ENDCHAR
STARTCHAR z
ENCODING 122
SWIDTH 549 0
DWIDTH 7 0
BBX 7 6 0 0
BITMAP
FE
CC
98
B2
74
FC
ENDCHAR
STARTCHAR braceleft
ENCODING 123
SWIDTH 708 0
DWIDTH 9 0
BBX 7 11 1 -1
BITMAP
3E
30
30
30
30
F0
30
30
30
30
3C
ENDCHAR
STARTCHAR bar
ENCODING 124
SWIDTH 304 0
DWIDTH 4 0
BBX 2 11 1 -1
BITMAP
C0
C0
C0
C0
C0
C0
C0
C0
C0
C0
C0
ENDCHAR
STARTCHAR braceright
ENCODING 125
SWIDTH 517 0
DWIDTH 6 0
BBX 7 11 0 -1
BITMAP
F8
38
18
10
10
1E
18
10
10
10
F0
ENDCHAR
STARTCHAR asciitilde
ENCODING 126
SWIDTH 466 0
DWIDTH 6 0
BBX 6 2 0 3
BITMAP
E4
FC
ENDCHAR
STARTCHAR uni00A0
ENCODING 160
SWIDTH 320 0
DWIDTH 4 0
BBX 1 1 0 0
BITMAP
00
ENDCHAR
STARTCHAR exclamdown
ENCODING 161
SWIDTH 305 0
DWIDTH 4 0
BBX 4 11 0 -4
BITMAP
20
70
00
60
60
60
60
60
E0
E0
E0
ENDCHAR
STARTCHAR cent
ENCODING 162
SWIDTH 417 0
DWIDTH 5 0
BBX 5 10 0 -1
BITMAP
30
20
70
D8
88
80
C8
70
20
30
ENDCHAR
STARTCHAR sterling
ENCODING 163
SWIDTH 658 0
DWIDTH 8 0
BBX 8 10 0 -1
BITMAP
01
1D
37
62
FD
31
FD
21
7F
01
ENDCHAR
STARTCHAR currency
ENCODING 164
SWIDTH 358 0
DWIDTH 4 0
BBX 4 4 0 2
BITMAP
F0
50
70
90
ENDCHAR
STARTCHAR yen
ENCODING 165
SWIDTH 796 0
DWIDTH 10 0
BBX 12 8 -2 0
BITMAP
FD00
18F0
0C80
0700
0F80
0F80
0200
1FC0
ENDCHAR
STARTCHAR brokenbar
ENCODING 166
SWIDTH 304 0
DWIDTH 4 0
BBX 2 11 1 -1
BITMAP
C0
C0
C0
C0
00
00
C0
C0
C0
C0
C0
ENDCHAR
STARTCHAR section
ENCODING 167
SWIDTH 646 0
DWIDTH 8 0
BBX 7 14 0 -3
BITMAP
12
7E
46
E2
78
7E
4E
C6
7E
3C
8E
46
66
9C
ENDCHAR
STARTCHAR dieresis
ENCODING 168
SWIDTH 708 0
DWIDTH 9 0
BBX 4 1 2 10
BITMAP
D0
ENDCHAR
STARTCHAR copyright
ENCODING 169
SWIDTH 700 0
DWIDTH 8 0
BBX 8 7 0 1
BITMAP
3E
4B
95
A1
B5
D9
7E
ENDCHAR
STARTCHAR ordfeminine
ENCODING 170
SWIDTH 399 0
DWIDTH 5 0
BBX 5 5 0 5
BITMAP
20
D0
90
F0
F8
ENDCHAR
STARTCHAR guillemotleft
ENCODING 171
SWIDTH 424 0
DWIDTH 5 0
BBX 5 6 0 0
BITMAP
28
58
D0
F0
58
28
ENDCHAR
STARTCHAR logicalnot
ENCODING 172
SWIDTH 541 0
DWIDTH 7 0
BBX 7 6 0 1
BITMAP
82
84
FC
FC
84
0E
ENDCHAR
STARTCHAR sfthyphen
ENCODING 173
SWIDTH 530 0
DWIDTH 6 0
BBX 6 2 0 3
BITMAP
FC
FC
ENDCHAR
STARTCHAR registered
ENCODING 174
SWIDTH 700 0
DWIDTH 8 0
BBX 8 8 0 0
BITMAP
3C
43
FD
91
91
DD
66
18
ENDCHAR
STARTCHAR macron
ENCODING 175
SWIDTH 705 0
DWIDTH 8 0
BBX 3 1 3 9
BITMAP
E0
ENDCHAR
STARTCHAR degree
ENCODING 176
SWIDTH 364 0
DWIDTH 4 0
BBX 3 4 1 5
BITMAP
40
E0
E0
40
ENDCHAR
STARTCHAR plusminus
ENCODING 177
SWIDTH 607 0
DWIDTH 7 0
BBX 7 8 0 0
BITMAP
18
18
FE
FE
10
10
FE
FE
ENDCHAR
STARTCHAR twosuperior
ENCODING 178
SWIDTH 440 0
DWIDTH 5 0
BBX 5 7 0 4
BITMAP
A0
78
48
98
68
F8
18
ENDCHAR
STARTCHAR threesuperior
ENCODING 179
SWIDTH 442 0
DWIDTH 5 0
BBX 5 7 0 4
BITMAP
80
F8
48
B8
98
58
F0
ENDCHAR
STARTCHAR acute
ENCODING 180
SWIDTH 694 0
DWIDTH 8 0
BBX 3 3 3 9
BITMAP
40
60
C0
ENDCHAR
STARTCHAR mu
ENCODING 181
SWIDTH 1000 0
DWIDTH 12 0
BBX 9 9 0 -3
BITMAP
FF00
3300
3300
3300
3300
3F80
2200
2000
2000
ENDCHAR
STARTCHAR paragraph
ENCODING 182
SWIDTH 782 0
DWIDTH 9 0
BBX 10 8 0 0
BITMAP
3FC0
CA00
8A00
7A00
0E00
0A00
0A00
7FC0
ENDCHAR
STARTCHAR periodcentered
ENCODING 183
SWIDTH 226 0
DWIDTH 3 0
BBX 3 2 0 4
BITMAP
40
E0
ENDCHAR
STARTCHAR cedilla
ENCODING 184
SWIDTH 780 0
DWIDTH 9 0
BBX 3 4 3 -2
BITMAP
40
C0
20
E0
ENDCHAR
STARTCHAR onesuperior
ENCODING 185
SWIDTH 390 0
DWIDTH 5 0
BBX 5 6 0 4
BITMAP
F0
30
20
20
20
78
ENDCHAR
STARTCHAR ordmasculine
ENCODING 186
SWIDTH 449 0
DWIDTH 5 0
BBX 6 4 0 5
BITMAP
F8
8C
88
70
ENDCHAR
STARTCHAR guillemotright
ENCODING 187
SWIDTH 415 0
DWIDTH 5 0
BBX 5 6 0 0
BITMAP
A0
D0
58
78
50
A0
ENDCHAR
STARTCHAR onequarter
ENCODING 188
SWIDTH 918 0
DWIDTH 11 0
BBX 11 13 0 -2
BITMAP
0080
F0C0
3180
2180
2300
2240
7EC0
04C0
09E0
1BE0
14A0
33E0
2000
ENDCHAR
STARTCHAR onehalf
ENCODING 189
SWIDTH 1007 0
DWIDTH 12 0
BBX 12 13 0 -2
BITMAP
0080
F0C0
3180
2180
2300
2200
7F00
05F0
0930
1930
10D0
31F0
21F0
ENDCHAR
STARTCHAR threequarters
ENCODING 190
SWIDTH 936 0
DWIDTH 11 0
BBX 11 13 0 -2
BITMAP
8080
F8C0
4880
B980
9B00
5B40
F640
04C0
0DE0
0BE0
14E0
33E0
1000
ENDCHAR
STARTCHAR questiondown
ENCODING 191
SWIDTH 568 0
DWIDTH 7 0
BBX 7 11 0 -4
BITMAP
0C
0E
08
0C
38
E8
C0
C2
E2
3C
04
ENDCHAR
STARTCHAR Agrave
ENCODING 192
SWIDTH 788 0
DWIDTH 9 0
BBX 14 15 -2 -3
BITMAP
0200
0600
0200
0000
1E00
0300
0700
0580
0D80
0FC0
10C0
3060
FC70
007C
0080
ENDCHAR
STARTCHAR Aacute
ENCODING 193
SWIDTH 788 0
DWIDTH 9 0
BBX 14 15 -2 -3
BITMAP
0200
0300
0200
0000
1E00
0300
0700
0580
0D80
0FC0
10C0
3060
FC70
007C
0080
ENDCHAR
STARTCHAR Acircumflex
ENCODING 194
SWIDTH 788 0
DWIDTH 9 0
BBX 14 14 -2 -3
BITMAP
0200
0700
0480
1E00
0300
0700
0580
0D80
0FC0
10C0
3060
FC70
007C
0080
ENDCHAR
STARTCHAR Atilde
ENCODING 195
SWIDTH 788 0
DWIDTH 9 0
BBX 14 14 -2 -3
BITMAP
0080
0780
0400
1E00
0300
0700
0580
0D80
0FC0
10C0
3060
FC70
007C
0080
ENDCHAR
STARTCHAR Adieresis
ENCODING 196
SWIDTH 788 0
DWIDTH 9 0
BBX 14 13 -2 -3
BITMAP
0580
0000
1E00
0300
0700
0580
0D80
0FC0
10C0
3060
FC70
007C
0080
ENDCHAR
STARTCHAR Aring
ENCODING 197
SWIDTH 788 0
DWIDTH 9 0
BBX 14 13 -2 -3
BITMAP
0300
0300
1E00
0300
0700
0580
0D80
0FC0
10C0
3060
FC70
007C
0080
ENDCHAR
STARTCHAR AE
ENCODING 198
SWIDTH 1019 0
DWIDTH 12 0
BBX 15 10 -3 -1
BITMAP
001E
0FFE
03CA
02CA
04D2
04F2
0FD2
10CA
31FC
FE00
ENDCHAR
STARTCHAR Ccedilla
ENCODING 199
SWIDTH 766 0
DWIDTH 9 0
BBX 9 13 0 -4
BITMAP
0080
3E80
7180
6080
E080
C000
E080
6080
3F80
0C80
1800
0400
1C00
ENDCHAR
STARTCHAR Egrave
ENCODING 200
SWIDTH 781 0
DWIDTH 9 0
BBX 10 12 -1 0
BITMAP
0C00
0400
0600
01C0
FFC0
1940
1A40
1A40
1E40
1A40
1940
FFC0
ENDCHAR
STARTCHAR Eacute
ENCODING 201
SWIDTH 781 0
DWIDTH 9 0
BBX 10 12 -1 0
BITMAP
0200
0600
0600
01C0
FFC0
1940
1A40
1A40
1E40
1A40
1940
FFC0
ENDCHAR
STARTCHAR Ecircumflex
ENCODING 202
SWIDTH 781 0
DWIDTH 9 0
BBX 10 12 -1 0
BITMAP
0400
0E00
1900
01C0
FFC0
1940
1A40
1A40
1E40
1A40
1940
FFC0
ENDCHAR
STARTCHAR Edieresis
ENCODING 203
SWIDTH 781 0
DWIDTH 9 0
BBX 10 10 -1 0
BITMAP
0B00
01C0
FFC0
1940
1A40
1A40
1E40
1A40
1940
FFC0
ENDCHAR
STARTCHAR Igrave
ENCODING 204
SWIDTH 445 0
DWIDTH 5 0
BBX 7 13 -1 -1
BITMAP
30
10
18
80
7E
18
18
18
18
18
18
18
FE
ENDCHAR
STARTCHAR Iacute
ENCODING 205
SWIDTH 445 0
DWIDTH 5 0
BBX 7 13 -1 -1
BITMAP
08
08
18
80
7E
18
18
18
18
18
18
18
FE
ENDCHAR
STARTCHAR Icircumflex
ENCODING 206
SWIDTH 445 0
DWIDTH 5 0
BBX 7 13 -1 -1
BITMAP
10
38
24
80
7E
18
18
18
18
18
18
18
FE
ENDCHAR
STARTCHAR Idieresis
ENCODING 207
SWIDTH 445 0
DWIDTH 5 0
BBX 7 11 -1 -1
BITMAP
2C
80
7E
18
18
18
18
18
18
18
FE
ENDCHAR
STARTCHAR Eth
ENCODING 208
SWIDTH 1000 0
DWIDTH 12 0
BBX 12 8 0 0
BITMAP
FF80
1CE0
1C60
6C70
7F60
0C60
0860
7FC0
ENDCHAR
STARTCHAR Ntilde
ENCODING 209
SWIDTH 840 0
DWIDTH 10 0
BBX 12 13 -1 -1
BITMAP
0100
0F00
0800
C7F0
3CC0
1C40
1E40
1740
13C0
11C0
10C0
FF40
0040
ENDCHAR
STARTCHAR Ograve
ENCODING 210
SWIDTH 808 0
DWIDTH 10 0
BBX 9 11 0 0
BITMAP
0800
0C00
0400
0000
3F00
6180
E180
C180
E180
6380
3E00
ENDCHAR
STARTCHAR Oacute
ENCODING 211
SWIDTH 808 0
DWIDTH 10 0
BBX 9 11 0 0
BITMAP
0600
0400
0C00
0000
3F00
6180
E180
C180
E180
6380
3E00
ENDCHAR
STARTCHAR Ocircumflex
ENCODING 212
SWIDTH 808 0
DWIDTH 10 0
BBX 9 11 0 0
BITMAP
0C00
1C00
1200
0000
3F00
6180
E180
C180
E180
6380
3E00
ENDCHAR
STARTCHAR Otilde
ENCODING 213
SWIDTH 808 0
DWIDTH 10 0
BBX 9 11 0 0
BITMAP
0200
1E00
1000
0000
3F00
6180
E180
C180
E180
6380
3E00
ENDCHAR
STARTCHAR Odieresis
ENCODING 214
SWIDTH 808 0
DWIDTH 10 0
BBX 9 9 0 0
BITMAP
1E00
0000
3F00
6180
E180
C180
E180
6380
3E00
ENDCHAR
STARTCHAR multiply
ENCODING 215
SWIDTH 556 0
DWIDTH 7 0
BBX 7 6 0 1
BITMAP
4C
EE
38
38
EC
46
ENDCHAR
STARTCHAR Oslash
ENCODING 216
SWIDTH 808 0
DWIDTH 10 0
BBX 9 10 0 -1
BITMAP
0200
0300
3F00
6780
E580
CD80
F980
7380
3E00
2000
ENDCHAR
STARTCHAR Ugrave
ENCODING 217
SWIDTH 725 0
DWIDTH 9 0
BBX 11 12 -1 0
BITMAP
0C00
0400
0600
0000
EFE0
3080
3080
3080
3080
3080
3980
1F00
ENDCHAR
STARTCHAR Uacute
ENCODING 218
SWIDTH 725 0
DWIDTH 9 0
BBX 11 12 -1 0
BITMAP
0400
0600
0400
0000
EFE0
3080
3080
3080
3080
3080
3980
1F00
ENDCHAR
STARTCHAR Ucircumflex
ENCODING 219
SWIDTH 725 0
DWIDTH 9 0
BBX 11 11 -1 0
BITMAP
0400
0E00
1900
EFE0
3080
3080
3080
3080
3080
3980
1F00
ENDCHAR
STARTCHAR Udieresis
ENCODING 220
SWIDTH 725 0
DWIDTH 9 0
BBX 11 10 -1 0
BITMAP
0B00
0000
EFE0
3080
3080
3080
3080
3080
3980
1F00
ENDCHAR
STARTCHAR Yacute
ENCODING 221
SWIDTH 848 0
DWIDTH 10 0
BBX 13 13 -2 -1
BITMAP
0080
0180
0180
0000
FE00
1CF8
0E40
0680
0300
0300
0300
0300
0FE0
ENDCHAR
STARTCHAR Thorn
ENCODING 222
SWIDTH 745 0
DWIDTH 9 0
BBX 10 8 -1 0
BITMAP
FE00
1800
1F80
18C0
18C0
1F80
1800
FF00
ENDCHAR
STARTCHAR germandbls
ENCODING 223
SWIDTH 986 0
DWIDTH 12 0
BBX 13 16 -1 -5
BITMAP
0F00
1880
18C0
18C0
18C0
7980
1900
1900
19C0
18F0
0938
0998
09F0
CA00
5800
3000
ENDCHAR
STARTCHAR agrave
ENCODING 224
SWIDTH 572 0
DWIDTH 7 0
BBX 8 10 0 0
BITMAP
18
08
0C
38
4C
44
34
CC
CC
7F
ENDCHAR
STARTCHAR aacute
ENCODING 225
SWIDTH 572 0
DWIDTH 7 0
BBX 8 11 0 0
BITMAP
08
0C
18
00
38
4C
44
34
CC
CC
7F
ENDCHAR
STARTCHAR acircumflex
ENCODING 226
SWIDTH 572 0
DWIDTH 7 0
BBX 8 10 0 0
BITMAP
18
18
24
38
4C
44
34
CC
CC
7F
ENDCHAR
STARTCHAR atilde
ENCODING 227
SWIDTH 572 0
DWIDTH 7 0
BBX 8 10 0 0
BITMAP
04
3C
20
38
4C
44
34
CC
CC
7F
ENDCHAR
STARTCHAR adieresis
ENCODING 228
SWIDTH 572 0
DWIDTH 7 0
BBX 8 9 0 0
BITMAP
28
00
38
4C
44
34
CC
CC
7F
ENDCHAR
STARTCHAR aring
ENCODING 229
SWIDTH 572 0
DWIDTH 7 0
BBX 8 9 0 0
BITMAP
18
18
38
4C
44
34
CC
CC
7F
ENDCHAR
STARTCHAR ae
ENCODING 230
SWIDTH 1022 0
DWIDTH 12 0
BBX 12 7 0 0
BITMAP
3000
4DE0
CF30
3FF0
CE00
CFF0
7E00
ENDCHAR
STARTCHAR ccedilla
ENCODING 231
SWIDTH 589 0
DWIDTH 7 0
BBX 7 10 0 -4
BITMAP
3C
66
C6
C0
62
7C
38
38
08
38
ENDCHAR
STARTCHAR egrave
ENCODING 232
SWIDTH 593 0
DWIDTH 7 0
BBX 7 10 0 -1
BITMAP
08
18
08
10
7C
46
FE
C0
66
38
ENDCHAR
STARTCHAR eacute
ENCODING 233
SWIDTH 593 0
DWIDTH 7 0
BBX 7 11 0 -1
BITMAP
08
08
18
00
10
7C
46
FE
C0
66
38
ENDCHAR
STARTCHAR ecircumflex
ENCODING 234
SWIDTH 593 0
DWIDTH 7 0
BBX 7 10 0 -1
BITMAP
18
18
24
10
7C
46
FE
C0
66
38
ENDCHAR
STARTCHAR edieresis
ENCODING 235
SWIDTH 593 0
DWIDTH 7 0
BBX 7 9 0 -1
BITMAP
3C
00
10
7C
46
FE
C0
66
38
ENDCHAR
STARTCHAR igrave
ENCODING 236
SWIDTH 393 0
DWIDTH 5 0
BBX 5 10 0 0
BITMAP
60
20
30
80
70
30
30
30
30
F8
ENDCHAR
STARTCHAR iacute
ENCODING 237
SWIDTH 393 0
DWIDTH 5 0
BBX 5 11 0 0
BITMAP
10
30
30
00
80
70
30
30
30
30
F8
ENDCHAR
STARTCHAR icircumflex
ENCODING 238
SWIDTH 393 0
DWIDTH 5 0
BBX 5 10 0 0
BITMAP
20
70
48
80
70
30
30
30
30
F8
ENDCHAR
STARTCHAR idieresis
ENCODING 239
SWIDTH 393 0
DWIDTH 5 0
BBX 5 9 0 0
BITMAP
78
00
80
70
30
30
30
30
F8
ENDCHAR
STARTCHAR eth
ENCODING 240
SWIDTH 672 0
DWIDTH 8 0
BBX 8 11 0 -1
BITMAP
62
17
0C
34
26
3F
67
C3
C3
C3
7E
ENDCHAR
STARTCHAR ntilde
ENCODING 241
SWIDTH 643 0
DWIDTH 8 0
BBX 10 9 -1 1
BITMAP
0100
0E00
1000
0800
FF00
3100
1100
1100
7FC0
ENDCHAR
STARTCHAR ograve
ENCODING 242
SWIDTH 705 0
DWIDTH 8 0
BBX 8 10 0 0
BITMAP
18
08
0C
00
3C
67
C3
C3
E3
3E
ENDCHAR
STARTCHAR oacute
ENCODING 243
SWIDTH 705 0
DWIDTH 8 0
BBX 8 10 0 0
BITMAP
08
0C
18
00
3C
67
C3
C3
E3
3E
ENDCHAR
STARTCHAR ocircumflex
ENCODING 244
SWIDTH 705 0
DWIDTH 8 0
BBX 8 9 0 0
BITMAP
08
1C
26
3C
67
C3
C3
E3
3E
ENDCHAR
STARTCHAR otilde
ENCODING 245
SWIDTH 705 0
DWIDTH 8 0
BBX 8 9 0 0
BITMAP
02
1C
20
3C
67
C3
C3
E3
3E
ENDCHAR
STARTCHAR odieresis
ENCODING 246
SWIDTH 705 0
DWIDTH 8 0
BBX 8 8 0 0
BITMAP
14
00
3C
67
C3
C3
E3
3E
ENDCHAR
STARTCHAR divide
ENCODING 247
SWIDTH 504 0
DWIDTH 6 0
BBX 6 7 0 0
BITMAP
30
30
00
FC
00
30
30
ENDCHAR
STARTCHAR oslash
ENCODING 248
SWIDTH 705 0
DWIDTH 8 0
BBX 8 9 0 -2
BITMAP
02
3E
6F
CF
DB
73
3E
60
20
ENDCHAR
STARTCHAR ugrave
ENCODING 249
SWIDTH 614 0
DWIDTH 7 0
BBX 9 11 -1 -1
BITMAP
1800
0800
0C00
0000
FF00
3300
2300
2300
3300
3F80
0200
ENDCHAR
STARTCHAR uacute
ENCODING 250
SWIDTH 614 0
DWIDTH 7 0
BBX 9 11 -1 -1
BITMAP
0400
0C00
0800
0000
FF00
3300
2300
2300
3300
3F80
0200
ENDCHAR
STARTCHAR ucircumflex
ENCODING 251
SWIDTH 614 0
DWIDTH 7 0
BBX 9 11 -1 -1
BITMAP
0800
1C00
1200
0000
FF00
3300
2300
2300
3300
3F80
0200
ENDCHAR
STARTCHAR udieresis
ENCODING 252
SWIDTH 614 0
DWIDTH 7 0
BBX 9 9 -1 -1
BITMAP
1400
0000
FF00
3300
2300
2300
3300
3F80
0200
ENDCHAR
STARTCHAR yacute
ENCODING 253
SWIDTH 655 0
DWIDTH 8 0
BBX 9 15 -1 -5
BITMAP
0400
0C00
0800
8000
6F80
3300
3300
7300
3300
1F00
0300
0300
2300
6300
3E00
ENDCHAR
STARTCHAR thorn
ENCODING 254
SWIDTH 734 0
DWIDTH 9 0
BBX 10 13 -1 -5
BITMAP
F800
1800
1800
1800
1F00
18C0
18C0
18C0
1D80
1B00
1800
1800
FE00
ENDCHAR
STARTCHAR ydieresis
ENCODING 255
SWIDTH 655 0
DWIDTH 8 0
BBX 9 13 -1 -5
BITMAP
1400
8000
6F80
3300
3300
7300
3300
1F00
0300
0300
2300
6300
3E00
ENDCHAR
STARTCHAR dotlessi
ENCODING 305
SWIDTH 393 0
DWIDTH 5 0
BBX 5 6 0 0
BITMAP
F0
30
30
30
30
F8
ENDCHAR
STARTCHAR Lslash
ENCODING 321
SWIDTH 713 0
DWIDTH 9 0
BBX 9 9 -1 0
BITMAP
FF00
1800
1C00
1E00
7880
3880
1880
1880
FF80
ENDCHAR
STARTCHAR lslash
ENCODING 322
SWIDTH 365 0
DWIDTH 4 0
BBX 6 11 -1 -1
BITMAP
F0
30
30
3C
38
F0
50
10
10
10
7C
ENDCHAR
STARTCHAR OE
ENCODING 338
SWIDTH 1195 0
DWIDTH 14 0
BBX 14 9 0 0
BITMAP
000C
0FFC
3D94
6794
C3A4
C3E4
C3A4
6F94
1FFC
ENDCHAR
STARTCHAR oe
ENCODING 339
SWIDTH 1087 0
DWIDTH 13 0
BBX 13 6 0 -1
BITMAP
7FF0
C318
C3F8
C708
7D90
00E0
ENDCHAR
STARTCHAR Scaron
ENCODING 352
SWIDTH 661 0
DWIDTH 8 0
BBX 8 13 0 -1
BITMAP
24
18
08
00
3D
C6
C2
F8
3E
87
43
7E
80
ENDCHAR
STARTCHAR scaron
ENCODING 353
SWIDTH 533 0
DWIDTH 6 0
BBX 6 11 0 0
BITMAP
6C
38
10
00
7C
CC
E4
78
9C
C4
FC
ENDCHAR
STARTCHAR Ydieresis
ENCODING 376
SWIDTH 848 0
DWIDTH 10 0
BBX 13 11 -2 -1
BITMAP
0280
0000
FE00
1CF8
0E40
0680
0300
0300
0300
0300
0FE0
ENDCHAR
STARTCHAR Zcaron
ENCODING 381
SWIDTH 685 0
DWIDTH 8 0
BBX 9 11 0 0
BITMAP
3600
1C00
0800
0080
FF00
4600
4C00
5D00
3900
7100
FF00
ENDCHAR
STARTCHAR zcaron
ENCODING 382
SWIDTH 549 0
DWIDTH 7 0
BBX 7 10 0 0
BITMAP
6C
38
10
00
FE
CC
98
B2
74
FC
ENDCHAR
STARTCHAR circumflex
ENCODING 710
SWIDTH 714 0
DWIDTH 9 0
BBX 4 3 3 8
BITMAP
40
E0
90
ENDCHAR
STARTCHAR caron
ENCODING 711
SWIDTH 714 0
DWIDTH 9 0
BBX 4 3 3 8
BITMAP
B0
60
40
ENDCHAR
STARTCHAR breve
ENCODING 728
SWIDTH 715 0
DWIDTH 9 0
BBX 4 2 3 9
BITMAP
B0
60
ENDCHAR
STARTCHAR dotaccent
ENCODING 729
SWIDTH 708 0
DWIDTH 9 0
BBX 1 1 4 10
BITMAP
80
ENDCHAR
STARTCHAR ring
ENCODING 730
SWIDTH 704 0
DWIDTH 8 0
BBX 3 2 3 9
BITMAP
60
E0
ENDCHAR
STARTCHAR ogonek
ENCODING 731
SWIDTH 988 0
DWIDTH 12 0
BBX 4 3 4 -1
BITMAP
80
80
F0
ENDCHAR
STARTCHAR tilde
ENCODING 732
SWIDTH 707 0
DWIDTH 8 0
BBX 4 3 3 8
BITMAP
10
F0
80
ENDCHAR
STARTCHAR hungarumlaut
ENCODING 733
SWIDTH 671 0
DWIDTH 8 0
BBX 5 3 2 9
BITMAP
50
78
F0
ENDCHAR
STARTCHAR endash
ENCODING 8211
SWIDTH 576 0
DWIDTH 7 0
BBX 5 1 1 4
BITMAP
F8
ENDCHAR
STARTCHAR emdash
ENCODING 8212
SWIDTH 993 0
DWIDTH 12 0
BBX 10 2 1 3
BITMAP
FFC0
01C0
ENDCHAR
STARTCHAR quoteleft
ENCODING 8216
SWIDTH 261 0
DWIDTH 3 0
BBX 3 4 0 5
BITMAP
40
60
C0
40
ENDCHAR
STARTCHAR quoteright
ENCODING 8217
SWIDTH 301 0
DWIDTH 4 0
BBX 3 4 0 5
BITMAP
40
60
60
C0
ENDCHAR
STARTCHAR quotesinglbase
ENCODING 8218
SWIDTH 332 0
DWIDTH 4 0
BBX 3 4 0 -1
BITMAP
40
60
60
C0
ENDCHAR
STARTCHAR quotedblleft
ENCODING 8220
SWIDTH 477 0
DWIDTH 6 0
BBX 6 4 0 5
BITMAP
48
6C
D8
48
ENDCHAR
STARTCHAR quotedblright
ENCODING 8221
SWIDTH 477 0
DWIDTH 6 0
BBX 6 4 0 5
BITMAP
50
7C
D8
50
ENDCHAR
STARTCHAR quotedblbase
ENCODING 8222
SWIDTH 477 0
DWIDTH 6 0
BBX 6 4 0 -1
BITMAP
50
7C
D8
50
ENDCHAR
STARTCHAR dagger
ENCODING 8224
SWIDTH 487 0
DWIDTH 6 0
BBX 6 14 0 -4
BITMAP
30
30
30
FC
F8
30
30
30
30
30
30
30
30
30
ENDCHAR
STARTCHAR daggerdbl
ENCODING 8225
SWIDTH 497 0
DWIDTH 6 0
BBX 6 14 0 -4
BITMAP
30
30
30
FC
F8
30
FC
7C
30
30
30
30
30
30
ENDCHAR
STARTCHAR bullet
ENCODING 8226
SWIDTH 275 0
DWIDTH 3 0
BBX 3 3 0 3
BITMAP
E0
E0
E0
ENDCHAR
STARTCHAR ellipsis
ENCODING 8230
SWIDTH 787 0
DWIDTH 9 0
BBX 9 2 0 -1
BITMAP
CD80
FD80
ENDCHAR
STARTCHAR perthousand
ENCODING 8240
SWIDTH 888 0
DWIDTH 11 0
BBX 11 10 0 -1
BITMAP
6600
BC00
EC00
0800
1800
1000
37E0
3DA0
27E0
6000
ENDCHAR
STARTCHAR guilsinglleft
ENCODING 8249
SWIDTH 234 0
DWIDTH 3 0
BBX 3 6 0 0
BITMAP
20
40
C0
C0
40
20
ENDCHAR
STARTCHAR guilsinglright
ENCODING 8250
SWIDTH 223 0
DWIDTH 3 0
BBX 3 6 0 0
BITMAP
80
C0
40
60
40
80
ENDCHAR
STARTCHAR fraction
ENCODING 8260
SWIDTH 600 0
DWIDTH 7 0
BBX 8 11 0 -1
BITMAP
06
07
0E
0C
18
18
30
70
60
C0
C0
ENDCHAR
STARTCHAR Euro
ENCODING 8364
SWIDTH 590 0
DWIDTH 7 0
BBX 7 7 0 1
BITMAP
1C
26
66
F8
FA
62
3C
ENDCHAR
STARTCHAR trademark
ENCODING 8482
SWIDTH 624 0
DWIDTH 7 0
BBX 8 5 0 4
BITMAP
40
C0
B8
96
FF
ENDCHAR
STARTCHAR minus
ENCODING 8722
SWIDTH 549 0
DWIDTH 7 0
BBX 6 2 0 3
BITMAP
FC
FC
ENDCHAR
STARTCHAR fi
ENCODING 64257
SWIDTH 757 0
DWIDTH 9 0
BBX 11 17 -1 -5
BITMAP
0400
0F80
1980
1180
1180
1800
7F80
1980
1980
1980
1980
1BE0
0800
0800
C800
5800
3000
ENDCHAR
STARTCHAR fl
ENCODING 64258
SWIDTH 776 0
DWIDTH 9 0
BBX 11 17 -1 -5
BITMAP
0600
0B00
1980
1180
1180
1980
7F80
1980
1880
1880
1880
1880
0BE0
0800
C800
5800
3000
ENDCHAR
STARTCHAR .notdef
ENCODING -1
SWIDTH 320 0
DWIDTH 4 0
BBX 1 1 0 0
BITMAP
00
ENDCHAR
ENDFONT
